<?xml version="1.0" encoding="UTF-8"?>
<svg width="272px" height="380px" viewBox="0 0 272 380" version="1.1" xmlns="http://www.w3.org/2000/svg" xmlns:xlink="http://www.w3.org/1999/xlink">
    <title>m3disp</title>
    <defs>
        <polygon id="path-1" points="39.36 33.12 27.2 66.48 25.2 66.48 13.76 32.96 8.24 65.84 0 65.84 8.16 16 14.24 16 26.88 49.36 38.96 16 45.12 16 52.4 65.84 44.16 65.84"></polygon>
        <filter x="-14.7%" y="-14.9%" width="129.3%" height="129.7%" filterUnits="objectBoundingBox" id="filter-2">
            <feMorphology radius="0.5" operator="dilate" in="SourceAlpha" result="shadowSpreadOuter1"></feMorphology>
            <feOffset dx="0" dy="0" in="shadowSpreadOuter1" result="shadowOffsetOuter1"></feOffset>
            <feGaussianBlur stdDeviation="2" in="shadowOffsetOuter1" result="shadowBlurOuter1"></feGaussianBlur>
            <feComposite in="shadowBlurOuter1" in2="SourceAlpha" operator="out" result="shadowBlurOuter1"></feComposite>
            <feColorMatrix values="0 0 0 0 1   0 0 0 0 1   0 0 0 0 1  0 0 0 0.5 0" type="matrix" in="shadowBlurOuter1"></feColorMatrix>
        </filter>
        <path d="M51.2561502,9.03755869 C51.5315806,6.24882629 52.5128013,4.04538341 54.1998122,2.42723005 C55.8868232,0.809076682 58.0988732,0 60.8359624,0 C63.5730516,0 65.7678873,0.791862285 67.4204695,2.37558685 C69.0730516,3.95931142 69.8993427,6.11111111 69.8993427,8.83098592 C69.8993427,11.8607199 68.9009077,14.0469484 66.9040376,15.3896714 C69.5894836,16.5602504 70.9322066,19.1079812 70.9322066,23.0328638 C70.9322066,26.0625978 69.9595931,28.4812207 68.0143662,30.2887324 C66.0691393,32.0962441 63.5644444,33 60.5002817,33 C57.6426917,33 55.1982473,32.0532081 53.1669484,30.1596244 C51.1356495,28.2660407 50.12,25.9248826 50.12,23.1361502 L55.4392488,23.1361502 C55.4392488,24.6510172 55.9384664,25.9248826 56.9369014,26.9577465 C57.9353365,27.9906103 59.2005947,28.5070423 60.7326761,28.5070423 C62.2647574,28.5070423 63.4869797,27.9389671 64.3993427,26.8028169 C65.3117058,25.6666667 65.7678873,24.2895149 65.7678873,22.6713615 C65.7678873,21.3286385 65.277277,20.0805947 64.2960563,18.92723 C63.3148357,17.7738654 62.204507,17.1971831 60.9650704,17.1971831 C60.8273552,17.1971831 60.6896401,17.2143975 60.5519249,17.2488263 L59.4157746,17.3521127 L59.4157746,13.7887324 L60.0871362,13.7887324 C61.3954304,13.7887324 62.5229734,13.3325509 63.4697653,12.4201878 C64.4165571,11.5078247 64.8899531,10.3802817 64.8899531,9.03755869 C64.8899531,5.83568075 63.4525509,4.23474178 60.5777465,4.23474178 C57.7029421,4.23474178 56.2655399,5.83568075 56.2655399,9.03755869 L51.2561502,9.03755869 Z" id="path-3"></path>
        <filter x="-36.0%" y="-22.7%" width="172.1%" height="145.5%" filterUnits="objectBoundingBox" id="filter-4">
            <feMorphology radius="0.5" operator="dilate" in="SourceAlpha" result="shadowSpreadOuter1"></feMorphology>
            <feOffset dx="0" dy="0" in="shadowSpreadOuter1" result="shadowOffsetOuter1"></feOffset>
            <feGaussianBlur stdDeviation="2" in="shadowOffsetOuter1" result="shadowBlurOuter1"></feGaussianBlur>
            <feComposite in="shadowBlurOuter1" in2="SourceAlpha" operator="out" result="shadowBlurOuter1"></feComposite>
            <feColorMatrix values="0 0 0 0 1   0 0 0 0 1   0 0 0 0 1  0 0 0 0.5 0" type="matrix" in="shadowBlurOuter1"></feColorMatrix>
        </filter>
        <path d="M90.76,62.88 C88.68,65.5466667 85.4,66.88 80.92,66.88 C76.44,66.88 72.88,65.1733333 70.24,61.76 C67.6,58.3466667 66.28,54.3466667 66.28,49.76 C66.28,45.1733333 67.6266667,41.2666667 70.32,38.04 C73.0133333,34.8133333 76.4666667,33.2 80.68,33.2 C85.16,33.2 88.4666667,34.5066667 90.6,37.12 L90.76,11.2 L98.52,11.2 L98.52,65.84 L90.76,65.84 L90.76,62.88 Z M91.64,50 C91.64,47.2266667 90.7866667,44.8533333 89.08,42.88 C87.3733333,40.9066667 85.32,39.92 82.92,39.92 C80.52,39.92 78.4533333,40.8933333 76.72,42.84 C74.9866667,44.7866667 74.12,47.1866667 74.12,50.04 C74.12,52.8933333 74.96,55.2933333 76.64,57.24 C78.32,59.1866667 80.44,60.16 83,60.16 C85.56,60.16 87.64,59.2133333 89.24,57.32 C90.84,55.4266667 91.64,52.9866667 91.64,50 Z" id="path-5"></path>
        <filter x="-23.3%" y="-13.5%" width="146.5%" height="126.9%" filterUnits="objectBoundingBox" id="filter-6">
            <feMorphology radius="0.5" operator="dilate" in="SourceAlpha" result="shadowSpreadOuter1"></feMorphology>
            <feOffset dx="0" dy="0" in="shadowSpreadOuter1" result="shadowOffsetOuter1"></feOffset>
            <feGaussianBlur stdDeviation="2" in="shadowOffsetOuter1" result="shadowBlurOuter1"></feGaussianBlur>
            <feComposite in="shadowBlurOuter1" in2="SourceAlpha" operator="out" result="shadowBlurOuter1"></feComposite>
            <feColorMatrix values="0 0 0 0 1   0 0 0 0 1   0 0 0 0 1  0 0 0 0.5 0" type="matrix" in="shadowBlurOuter1"></feColorMatrix>
        </filter>
        <path d="M114.44,20.96 C114.44,22.1866667 113.986667,23.2533333 113.08,24.16 C112.173333,25.0666667 111.106667,25.52 109.88,25.52 C108.653333,25.52 107.586667,25.0666667 106.68,24.16 C105.773333,23.2533333 105.32,22.1866667 105.32,20.96 C105.32,19.7333333 105.773333,18.6666667 106.68,17.76 C107.586667,16.8533333 108.653333,16.4 109.88,16.4 C111.106667,16.4 112.173333,16.8533333 113.08,17.76 C113.986667,18.6666667 114.44,19.7333333 114.44,20.96 Z M113.8,65.84 L106.04,65.84 L106.04,34.24 L113.8,34.24 L113.8,65.84 Z" id="path-7"></path>
        <filter x="-82.2%" y="-15.2%" width="264.5%" height="130.3%" filterUnits="objectBoundingBox" id="filter-8">
            <feMorphology radius="0.5" operator="dilate" in="SourceAlpha" result="shadowSpreadOuter1"></feMorphology>
            <feOffset dx="0" dy="0" in="shadowSpreadOuter1" result="shadowOffsetOuter1"></feOffset>
            <feGaussianBlur stdDeviation="2" in="shadowOffsetOuter1" result="shadowBlurOuter1"></feGaussianBlur>
            <feComposite in="shadowBlurOuter1" in2="SourceAlpha" operator="out" result="shadowBlurOuter1"></feComposite>
            <feColorMatrix values="0 0 0 0 1   0 0 0 0 1   0 0 0 0 1  0 0 0 0.5 0" type="matrix" in="shadowBlurOuter1"></feColorMatrix>
        </filter>
        <path d="M138.12,40.8 C136.413333,39.2 134.626667,38.4 132.76,38.4 C129.933333,38.4 128.52,39.68 128.52,42.24 C128.52,43.68 129.8,44.8533333 132.36,45.76 C137.053333,47.4666667 139.96,49.0266667 141.08,50.44 C142.2,51.8533333 142.76,53.6 142.76,55.68 C142.76,59.0933333 141.573333,61.8133333 139.2,63.84 C136.826667,65.8666667 133.906667,66.88 130.44,66.88 C125.96,66.88 122.253333,65.12 119.32,61.6 L122.76,57.2 C125.426667,59.8666667 127.88,61.2 130.12,61.2 C133.373333,61.2 135,59.6266667 135,56.48 C135,54.88 134.146667,53.6933333 132.44,52.92 C130.733333,52.1466667 129.426667,51.5733333 128.52,51.2 C123.613333,49.0666667 121.16,46.48 121.16,43.44 C121.16,40.4 122.08,37.9333333 123.92,36.04 C125.76,34.1466667 128.173333,33.2 131.16,33.2 C135.426667,33.2 138.813333,34.2933333 141.32,36.48 L138.12,40.8 Z" id="path-9"></path>
        <filter x="-33.2%" y="-22.3%" width="165.2%" height="144.5%" filterUnits="objectBoundingBox" id="filter-10">
            <feMorphology radius="0.5" operator="dilate" in="SourceAlpha" result="shadowSpreadOuter1"></feMorphology>
            <feOffset dx="0" dy="0" in="shadowSpreadOuter1" result="shadowOffsetOuter1"></feOffset>
            <feGaussianBlur stdDeviation="2" in="shadowOffsetOuter1" result="shadowBlurOuter1"></feGaussianBlur>
            <feComposite in="shadowBlurOuter1" in2="SourceAlpha" operator="out" result="shadowBlurOuter1"></feComposite>
            <feColorMatrix values="0 0 0 0 1   0 0 0 0 1   0 0 0 0 1  0 0 0 0.5 0" type="matrix" in="shadowBlurOuter1"></feColorMatrix>
        </filter>
        <path d="M155.4,37.12 C157.64,34.5066667 160.973333,33.2 165.4,33.2 C169.56,33.2 173.013333,34.8533333 175.76,38.16 C178.506667,41.4666667 179.88,45.36 179.88,49.84 C179.88,54.6933333 178.52,58.7466667 175.8,62 C173.08,65.2533333 169.56,66.88 165.24,66.88 C160.6,66.88 157.373333,65.5466667 155.56,62.88 L155.4,79.2 L147.64,79.2 L147.64,34.24 L155.4,34.24 L155.4,37.12 Z M171.96,50 C171.96,47.28 171.186667,44.92 169.64,42.92 C168.093333,40.92 165.96,39.92 163.24,39.92 C160.733333,39.92 158.653333,40.9333333 157,42.96 C155.346667,44.9866667 154.52,47.32 154.52,49.96 C154.52,52.6 155.4,54.96 157.16,57.04 C158.92,59.12 160.946667,60.16 163.24,60.16 C165.96,60.16 168.093333,59.2 169.64,57.28 C171.186667,55.36 171.96,52.9333333 171.96,50 Z" id="path-11"></path>
        <filter x="-23.3%" y="-16.3%" width="146.5%" height="132.6%" filterUnits="objectBoundingBox" id="filter-12">
            <feMorphology radius="0.5" operator="dilate" in="SourceAlpha" result="shadowSpreadOuter1"></feMorphology>
            <feOffset dx="0" dy="0" in="shadowSpreadOuter1" result="shadowOffsetOuter1"></feOffset>
            <feGaussianBlur stdDeviation="2" in="shadowOffsetOuter1" result="shadowBlurOuter1"></feGaussianBlur>
            <feComposite in="shadowBlurOuter1" in2="SourceAlpha" operator="out" result="shadowBlurOuter1"></feComposite>
            <feColorMatrix values="0 0 0 0 1   0 0 0 0 1   0 0 0 0 1  0 0 0 0.5 0" type="matrix" in="shadowBlurOuter1"></feColorMatrix>
        </filter>
        <filter x="-2.5%" y="-2.5%" width="105.0%" height="105.0%" filterUnits="objectBoundingBox" id="filter-13">
            <feOffset dx="0" dy="0" in="SourceAlpha" result="shadowOffsetOuter1"></feOffset>
            <feGaussianBlur stdDeviation="2" in="shadowOffsetOuter1" result="shadowBlurOuter1"></feGaussianBlur>
            <feColorMatrix values="0 0 0 0 0   0 0 0 0 0.815387228   0 0 0 0 0.744290309  0 0 0 1 0" type="matrix" in="shadowBlurOuter1" result="shadowMatrixOuter1"></feColorMatrix>
            <feMerge>
                <feMergeNode in="shadowMatrixOuter1"></feMergeNode>
                <feMergeNode in="SourceGraphic"></feMergeNode>
            </feMerge>
        </filter>
    </defs>
    <g id="m3disp" stroke="none" stroke-width="1" fill="none" fill-rule="evenodd">
        <g transform="translate(16.000000, 16.000000)">
            <g id="M3disp" transform="translate(32.720000, 269.160000)" fill-rule="nonzero">
                <g id="Path">
                    <use fill="black" fill-opacity="1" filter="url(#filter-2)" xlink:href="#path-1"></use>
                    <use fill-opacity="0.87" fill="#FFFFFF" xlink:href="#path-1"></use>
                </g>
                <g id="Path">
                    <use fill="black" fill-opacity="1" filter="url(#filter-4)" xlink:href="#path-3"></use>
                    <use fill-opacity="0.87" fill="#FFFFFF" xlink:href="#path-3"></use>
                </g>
                <g id="Shape">
                    <use fill="black" fill-opacity="1" filter="url(#filter-6)" xlink:href="#path-5"></use>
                    <use fill-opacity="0.87" fill="#FFFFFF" xlink:href="#path-5"></use>
                </g>
                <g id="Shape">
                    <use fill="black" fill-opacity="1" filter="url(#filter-8)" xlink:href="#path-7"></use>
                    <use fill-opacity="0.87" fill="#FFFFFF" xlink:href="#path-7"></use>
                </g>
                <g id="Path">
                    <use fill="black" fill-opacity="1" filter="url(#filter-10)" xlink:href="#path-9"></use>
                    <use fill-opacity="0.87" fill="#FFFFFF" xlink:href="#path-9"></use>
                </g>
                <g id="Shape">
                    <use fill="black" fill-opacity="1" filter="url(#filter-12)" xlink:href="#path-11"></use>
                    <use fill-opacity="0.87" fill="#FFFFFF" xlink:href="#path-11"></use>
                </g>
            </g>
            <g id="Group-2" filter="url(#filter-13)" stroke="#00D0BE" stroke-width="6">
                <rect id="Rectangle" x="3" y="3" width="234" height="234" rx="22"></rect>
                <rect id="Rectangle" x="47" y="3" width="34" height="138"></rect>
                <rect id="Rectangle-Copy" x="103" y="3" width="34" height="138"></rect>
                <rect id="Rectangle-Copy-2" x="159" y="3" width="34" height="138"></rect>
                <line x1="65" y1="145" x2="65" y2="237" id="Line-2" stroke-linecap="square"></line>
                <line x1="121" y1="145" x2="121" y2="237" id="Line-2-Copy" stroke-linecap="square"></line>
                <line x1="177" y1="143" x2="177" y2="235" id="Line-2-Copy-2" stroke-linecap="square"></line>
            </g>
        </g>
    </g>
</svg>