<?xml version="1.0" encoding="UTF-8"?>
<svg width="256px" height="256px" viewBox="0 0 256 256" version="1.1" xmlns="http://www.w3.org/2000/svg" xmlns:xlink="http://www.w3.org/1999/xlink">
    <title>m3disp</title>
    <defs>
        <polygon id="path-1" points="26.24 22.08 18.1333333 44.32 16.8 44.32 9.17333333 21.9733333 5.49333333 43.8933333 0 43.8933333 5.44 10.6666667 9.49333333 10.6666667 17.92 32.9066667 25.9733333 10.6666667 30.08 10.6666667 34.9333333 43.8933333 29.44 43.8933333"></polygon>
        <filter x="-22.0%" y="-22.3%" width="143.9%" height="144.6%" filterUnits="objectBoundingBox" id="filter-2">
            <feMorphology radius="0.5" operator="dilate" in="SourceAlpha" result="shadowSpreadOuter1"></feMorphology>
            <feOffset dx="0" dy="0" in="shadowSpreadOuter1" result="shadowOffsetOuter1"></feOffset>
            <feGaussianBlur stdDeviation="2" in="shadowOffsetOuter1" result="shadowBlurOuter1"></feGaussianBlur>
            <feComposite in="shadowBlurOuter1" in2="SourceAlpha" operator="out" result="shadowBlurOuter1"></feComposite>
            <feColorMatrix values="0 0 0 0 1   0 0 0 0 1   0 0 0 0 1  0 0 0 0.5 0" type="matrix" in="shadowBlurOuter1"></feColorMatrix>
        </filter>
        <path d="M34.1707668,6.02503912 C34.3543871,4.16588419 35.0085342,2.69692227 36.1332081,1.61815336 C37.2578821,0.539384455 38.7325822,0 40.5573083,0 C42.3820344,0 43.8452582,0.52790819 44.9469797,1.58372457 C46.0487011,2.63954095 46.5995618,4.07407407 46.5995618,5.88732394 C46.5995618,7.90714658 45.9339384,9.36463224 44.6026917,10.2597809 C46.392989,11.0401669 47.2881377,12.7386541 47.2881377,15.3552426 C47.2881377,17.3750652 46.6397287,18.9874804 45.3429108,20.1924883 C44.0460929,21.3974961 42.3762963,22 40.3335211,22 C38.4284611,22 36.7988315,21.3688054 35.4446322,20.1064163 C34.090433,18.8440271 33.4133333,17.2832551 33.4133333,15.4241002 L36.9594992,15.4241002 C36.9594992,16.4340115 37.2923109,17.2832551 37.9579343,17.971831 C38.6235576,18.6604069 39.4670631,19.0046948 40.4884507,19.0046948 C41.5098383,19.0046948 42.3246531,18.6259781 42.9328951,17.8685446 C43.5411372,17.1111111 43.8452582,16.1930099 43.8452582,15.114241 C43.8452582,14.2190923 43.5181847,13.3870631 42.8640376,12.6181534 C42.2098905,11.8492436 41.4696714,11.4647887 40.6433803,11.4647887 C40.5515702,11.4647887 40.45976,11.476265 40.3679499,11.4992175 L39.6105164,11.5680751 L39.6105164,9.19248826 L40.0580908,9.19248826 C40.9302869,9.19248826 41.6819823,8.88836724 42.3131768,8.2801252 C42.9443714,7.67188315 43.2599687,6.92018779 43.2599687,6.02503912 C43.2599687,3.89045383 42.3017006,2.82316119 40.3851643,2.82316119 C38.4686281,2.82316119 37.5103599,3.89045383 37.5103599,6.02503912 L34.1707668,6.02503912 Z" id="path-3"></path>
        <filter x="-54.1%" y="-34.1%" width="208.1%" height="168.2%" filterUnits="objectBoundingBox" id="filter-4">
            <feMorphology radius="0.5" operator="dilate" in="SourceAlpha" result="shadowSpreadOuter1"></feMorphology>
            <feOffset dx="0" dy="0" in="shadowSpreadOuter1" result="shadowOffsetOuter1"></feOffset>
            <feGaussianBlur stdDeviation="2" in="shadowOffsetOuter1" result="shadowBlurOuter1"></feGaussianBlur>
            <feComposite in="shadowBlurOuter1" in2="SourceAlpha" operator="out" result="shadowBlurOuter1"></feComposite>
            <feColorMatrix values="0 0 0 0 1   0 0 0 0 1   0 0 0 0 1  0 0 0 0.5 0" type="matrix" in="shadowBlurOuter1"></feColorMatrix>
        </filter>
        <path d="M60.5066667,41.92 C59.12,43.6977778 56.9333333,44.5866667 53.9466667,44.5866667 C50.96,44.5866667 48.5866667,43.4488889 46.8266667,41.1733333 C45.0666667,38.8977778 44.1866667,36.2311111 44.1866667,33.1733333 C44.1866667,30.1155556 45.0844444,27.5111111 46.88,25.36 C48.6755556,23.2088889 50.9777778,22.1333333 53.7866667,22.1333333 C56.7733333,22.1333333 58.9777778,23.0044444 60.4,24.7466667 L60.5066667,7.46666667 L65.68,7.46666667 L65.68,43.8933333 L60.5066667,43.8933333 L60.5066667,41.92 Z M61.0933333,33.3333333 C61.0933333,31.4844444 60.5244444,29.9022222 59.3866667,28.5866667 C58.2488889,27.2711111 56.88,26.6133333 55.28,26.6133333 C53.68,26.6133333 52.3022222,27.2622222 51.1466667,28.56 C49.9911111,29.8577778 49.4133333,31.4577778 49.4133333,33.36 C49.4133333,35.2622222 49.9733333,36.8622222 51.0933333,38.16 C52.2133333,39.4577778 53.6266667,40.1066667 55.3333333,40.1066667 C57.04,40.1066667 58.4266667,39.4755556 59.4933333,38.2133333 C60.56,36.9511111 61.0933333,35.3244444 61.0933333,33.3333333 Z" id="path-5"></path>
        <filter x="-34.9%" y="-20.2%" width="169.8%" height="140.4%" filterUnits="objectBoundingBox" id="filter-6">
            <feMorphology radius="0.5" operator="dilate" in="SourceAlpha" result="shadowSpreadOuter1"></feMorphology>
            <feOffset dx="0" dy="0" in="shadowSpreadOuter1" result="shadowOffsetOuter1"></feOffset>
            <feGaussianBlur stdDeviation="2" in="shadowOffsetOuter1" result="shadowBlurOuter1"></feGaussianBlur>
            <feComposite in="shadowBlurOuter1" in2="SourceAlpha" operator="out" result="shadowBlurOuter1"></feComposite>
            <feColorMatrix values="0 0 0 0 1   0 0 0 0 1   0 0 0 0 1  0 0 0 0.5 0" type="matrix" in="shadowBlurOuter1"></feColorMatrix>
        </filter>
        <path d="M76.2933333,13.9733333 C76.2933333,14.7911111 75.9911111,15.5022222 75.3866667,16.1066667 C74.7822222,16.7111111 74.0711111,17.0133333 73.2533333,17.0133333 C72.4355556,17.0133333 71.7244444,16.7111111 71.12,16.1066667 C70.5155556,15.5022222 70.2133333,14.7911111 70.2133333,13.9733333 C70.2133333,13.1555556 70.5155556,12.4444444 71.12,11.84 C71.7244444,11.2355556 72.4355556,10.9333333 73.2533333,10.9333333 C74.0711111,10.9333333 74.7822222,11.2355556 75.3866667,11.84 C75.9911111,12.4444444 76.2933333,13.1555556 76.2933333,13.9733333 Z M75.8666667,43.8933333 L70.6933333,43.8933333 L70.6933333,22.8266667 L75.8666667,22.8266667 L75.8666667,43.8933333 Z" id="path-7"></path>
        <filter x="-123.4%" y="-22.8%" width="346.7%" height="145.5%" filterUnits="objectBoundingBox" id="filter-8">
            <feMorphology radius="0.5" operator="dilate" in="SourceAlpha" result="shadowSpreadOuter1"></feMorphology>
            <feOffset dx="0" dy="0" in="shadowSpreadOuter1" result="shadowOffsetOuter1"></feOffset>
            <feGaussianBlur stdDeviation="2" in="shadowOffsetOuter1" result="shadowBlurOuter1"></feGaussianBlur>
            <feComposite in="shadowBlurOuter1" in2="SourceAlpha" operator="out" result="shadowBlurOuter1"></feComposite>
            <feColorMatrix values="0 0 0 0 1   0 0 0 0 1   0 0 0 0 1  0 0 0 0.5 0" type="matrix" in="shadowBlurOuter1"></feColorMatrix>
        </filter>
        <path d="M92.08,27.2 C90.9422222,26.1333333 89.7511111,25.6 88.5066667,25.6 C86.6222222,25.6 85.68,26.4533333 85.68,28.16 C85.68,29.12 86.5333333,29.9022222 88.24,30.5066667 C91.3688889,31.6444444 93.3066667,32.6844444 94.0533333,33.6266667 C94.8,34.5688889 95.1733333,35.7333333 95.1733333,37.12 C95.1733333,39.3955556 94.3822222,41.2088889 92.8,42.56 C91.2177778,43.9111111 89.2711111,44.5866667 86.96,44.5866667 C83.9733333,44.5866667 81.5022222,43.4133333 79.5466667,41.0666667 L81.84,38.1333333 C83.6177778,39.9111111 85.2533333,40.8 86.7466667,40.8 C88.9155556,40.8 90,39.7511111 90,37.6533333 C90,36.5866667 89.4311111,35.7955556 88.2933333,35.28 C87.1555556,34.7644444 86.2844444,34.3822222 85.68,34.1333333 C82.4088889,32.7111111 80.7733333,30.9866667 80.7733333,28.96 C80.7733333,26.9333333 81.3866667,25.2888889 82.6133333,24.0266667 C83.84,22.7644444 85.4488889,22.1333333 87.44,22.1333333 C90.2844444,22.1333333 92.5422222,22.8622222 94.2133333,24.32 L92.08,27.2 Z" id="path-9"></path>
        <filter x="-49.7%" y="-33.4%" width="197.7%" height="166.8%" filterUnits="objectBoundingBox" id="filter-10">
            <feMorphology radius="0.5" operator="dilate" in="SourceAlpha" result="shadowSpreadOuter1"></feMorphology>
            <feOffset dx="0" dy="0" in="shadowSpreadOuter1" result="shadowOffsetOuter1"></feOffset>
            <feGaussianBlur stdDeviation="2" in="shadowOffsetOuter1" result="shadowBlurOuter1"></feGaussianBlur>
            <feComposite in="shadowBlurOuter1" in2="SourceAlpha" operator="out" result="shadowBlurOuter1"></feComposite>
            <feColorMatrix values="0 0 0 0 1   0 0 0 0 1   0 0 0 0 1  0 0 0 0.5 0" type="matrix" in="shadowBlurOuter1"></feColorMatrix>
        </filter>
        <path d="M103.6,24.7466667 C105.093333,23.0044444 107.315556,22.1333333 110.266667,22.1333333 C113.04,22.1333333 115.342222,23.2355556 117.173333,25.44 C119.004444,27.6444444 119.92,30.24 119.92,33.2266667 C119.92,36.4622222 119.013333,39.1644444 117.2,41.3333333 C115.386667,43.5022222 113.04,44.5866667 110.16,44.5866667 C107.066667,44.5866667 104.915556,43.6977778 103.706667,41.92 L103.6,52.8 L98.4266667,52.8 L98.4266667,22.8266667 L103.6,22.8266667 L103.6,24.7466667 Z M114.64,33.3333333 C114.64,31.52 114.124444,29.9466667 113.093333,28.6133333 C112.062222,27.28 110.64,26.6133333 108.826667,26.6133333 C107.155556,26.6133333 105.768889,27.2888889 104.666667,28.64 C103.564444,29.9911111 103.013333,31.5466667 103.013333,33.3066667 C103.013333,35.0666667 103.6,36.64 104.773333,38.0266667 C105.946667,39.4133333 107.297778,40.1066667 108.826667,40.1066667 C110.64,40.1066667 112.062222,39.4666667 113.093333,38.1866667 C114.124444,36.9066667 114.64,35.2888889 114.64,33.3333333 Z" id="path-11"></path>
        <filter x="-34.9%" y="-24.5%" width="169.8%" height="148.9%" filterUnits="objectBoundingBox" id="filter-12">
            <feMorphology radius="0.5" operator="dilate" in="SourceAlpha" result="shadowSpreadOuter1"></feMorphology>
            <feOffset dx="0" dy="0" in="shadowSpreadOuter1" result="shadowOffsetOuter1"></feOffset>
            <feGaussianBlur stdDeviation="2" in="shadowOffsetOuter1" result="shadowBlurOuter1"></feGaussianBlur>
            <feComposite in="shadowBlurOuter1" in2="SourceAlpha" operator="out" result="shadowBlurOuter1"></feComposite>
            <feColorMatrix values="0 0 0 0 1   0 0 0 0 1   0 0 0 0 1  0 0 0 0.5 0" type="matrix" in="shadowBlurOuter1"></feColorMatrix>
        </filter>
        <filter x="-3.8%" y="-3.8%" width="107.5%" height="108.1%" filterUnits="objectBoundingBox" id="filter-13">
            <feOffset dx="0" dy="0" in="SourceAlpha" result="shadowOffsetOuter1"></feOffset>
            <feGaussianBlur stdDeviation="2" in="shadowOffsetOuter1" result="shadowBlurOuter1"></feGaussianBlur>
            <feColorMatrix values="0 0 0 0 0   0 0 0 0 0.815387228   0 0 0 0 0.744290309  0 0 0 1 0" type="matrix" in="shadowBlurOuter1" result="shadowMatrixOuter1"></feColorMatrix>
            <feMerge>
                <feMergeNode in="shadowMatrixOuter1"></feMergeNode>
                <feMergeNode in="SourceGraphic"></feMergeNode>
            </feMerge>
        </filter>
    </defs>
    <g id="m3disp" stroke="none" stroke-width="1" fill="none" fill-rule="evenodd">
        <g transform="translate(48.000000, 12.000000)">
            <g id="M3disp" transform="translate(21.813333, 179.440000)" fill-rule="nonzero">
                <g id="Path">
                    <use fill="black" fill-opacity="1" filter="url(#filter-2)" xlink:href="#path-1"></use>
                    <use fill-opacity="0.87" fill="#FFFFFF" xlink:href="#path-1"></use>
                </g>
                <g id="Path">
                    <use fill="black" fill-opacity="1" filter="url(#filter-4)" xlink:href="#path-3"></use>
                    <use fill-opacity="0.87" fill="#FFFFFF" xlink:href="#path-3"></use>
                </g>
                <g id="Shape">
                    <use fill="black" fill-opacity="1" filter="url(#filter-6)" xlink:href="#path-5"></use>
                    <use fill-opacity="0.87" fill="#FFFFFF" xlink:href="#path-5"></use>
                </g>
                <g id="Shape">
                    <use fill="black" fill-opacity="1" filter="url(#filter-8)" xlink:href="#path-7"></use>
                    <use fill-opacity="0.87" fill="#FFFFFF" xlink:href="#path-7"></use>
                </g>
                <g id="Path">
                    <use fill="black" fill-opacity="1" filter="url(#filter-10)" xlink:href="#path-9"></use>
                    <use fill-opacity="0.87" fill="#FFFFFF" xlink:href="#path-9"></use>
                </g>
                <g id="Shape">
                    <use fill="black" fill-opacity="1" filter="url(#filter-12)" xlink:href="#path-11"></use>
                    <use fill-opacity="0.87" fill="#FFFFFF" xlink:href="#path-11"></use>
                </g>
            </g>
            <g id="Group-2" filter="url(#filter-13)" stroke="#00D0BE" stroke-width="6">
                <rect id="Rectangle" x="3" y="3" width="154" height="154" rx="22"></rect>
                <rect id="Rectangle" x="32.3333333" y="3" width="20.6666667" height="90"></rect>
                <rect id="Rectangle-Copy" x="69.6666667" y="3" width="20.6666667" height="90"></rect>
                <rect id="Rectangle-Copy-2" x="107" y="3" width="20.6666667" height="90"></rect>
                <line x1="43.3333333" y1="96.6666667" x2="43.3333333" y2="158" id="Line-2" stroke-linecap="square"></line>
                <line x1="80.6666667" y1="96.6666667" x2="80.6666667" y2="158" id="Line-2-Copy" stroke-linecap="square"></line>
                <line x1="118" y1="95.3333333" x2="118" y2="156.666667" id="Line-2-Copy-2" stroke-linecap="square"></line>
            </g>
        </g>
    </g>
</svg>